# xmcd CD database file
#
# Track frame offsets:
#	150
#	5365
#	23352
#	41335
#	56154
#	72660
#	95127
#	115192
#	139034
#	142649
#	163433
#	182073
#	208416
#	223143
#
# Disc length: 3030 seconds
#
# Revision: 0
# Processed by: cddbd v1.5.2PL0 Copyright (c) Steve Scherf et al.
# Submitted via: CDex 1.70beta2
#
DISCID=d00bd40e
DTITLE=Cowboy Junkies - Renmin Park
DYEAR=2010
DGENRE=Country Blues
TTITLE0=Intro
TTITLE1=Renmin Park
TTITLE2=Sir Francis Bacon At The Net
TTITLE3=Stranger Here
TTITLE4=A Few Bags Of Grain
TTITLE5=I Cannot Sit Sadly By Your Side
TTITLE6=(You've Got To Get) A Good Heart
TTITLE7=Cicadas
TTITLE8=Interlude
TTITLE9=My Fall
TTITLE10=Little Dark Heart
TTITLE11=A Walk In The Park
TTITLE12=Renmin Park (revisited)
TTITLE13=Coda
EXTD=YEAR: 2010
EXTT0=
EXTT1=
EXTT2=
EXTT3=
EXTT4=
EXTT5=
EXTT6=
EXTT7=
EXTT8=
EXTT9=
EXTT10=
EXTT11=
EXTT12=
EXTT13=
PLAYORDER=
